<svg width="64" height="64" viewBox="0 0 64 64"><path d="M31.235 18h1.5v6.118H41v-3.06h1.5v3.06H47v1.53h-4.185L47 37.5v1.147C47 41.603 44.65 44 41.75 44c-2.071 0-3.862-1.223-4.716-2.999H26.966C26.112 42.777 24.321 44 22.25 44c-2.9 0-5.25-2.397-5.25-5.353V37.24l4.185-11.593H17v-1.53h4.5V21.06H23v3.059h8.235V18zM26 38.647h-7.5c0 2.112 1.679 3.824 3.75 3.824 2.071 0 3.75-1.712 3.75-3.824zm19.5 0H38c0 2.112 1.679 3.824 3.75 3.824 2.071 0 3.75-1.712 3.75-3.824zm-9-1.407l4.185-11.593h-7.95v13.815h3.825a5.477 5.477 0 01-.06-.815V37.24zm-5.265-11.593h-7.92L27.5 37.5v1.147c0 .277-.02.549-.06.815h3.795V25.647zm10.515 1.53l-3.57 9.94 7.14.062-3.57-10.003v.001zm-19.5 0l-3.57 9.94h7.14l-3.57-9.94z"/></svg>